Coordinates
version=1
nRows=60
nColumns=12
inDegrees=yes

Units are S.I. units (second, meters, Newtons, ...)
Angles are in degrees

endheader
time	SC_y	SC_z	SC_x	AC_y	AC_z	AC_x	GH_y	GH_z	GH_yy	EL_x	PS_y
       0.0              -47.77          30.55          69.26          36.06         -8.529         -8.359          151.8          57.74          126.2          129.1          96.69
  0.009795              -47.77          30.55          69.26          36.06         -8.528         -8.357          151.8          57.73          126.2          129.1          96.69
   0.01959              -47.76          30.55          69.26          36.07         -8.527         -8.355          151.8          57.72          126.2          129.1          96.69
   0.02938              -47.76          30.55          69.26          36.07         -8.526         -8.353          151.7          57.72          126.1          129.1          96.69
   0.03918              -47.76          30.55          69.25          36.07         -8.525         -8.351          151.7          57.71          126.1          129.0          96.69
   0.04897              -47.76          30.55          69.25          36.07         -8.523         -8.348          151.7           57.7          126.1          129.0           96.7
   0.05877              -47.75          30.56          69.25          36.08         -8.522         -8.346          151.7          57.69          126.0          129.0           96.7
   0.06856              -47.75          30.56          69.25          36.08         -8.521         -8.343          151.6          57.68          126.0          129.0           96.7
   0.07836              -47.75          30.56          69.24          36.09         -8.519          -8.34          151.6          57.67          125.9          128.9           96.7
   0.08815              -47.74          30.56          69.24          36.09         -8.518         -8.337          151.6          57.66          125.9          128.9           96.7
   0.09795              -47.74          30.56          69.24          36.09         -8.516         -8.334          151.5          57.64          125.8          128.9           96.7
    0.1077              -47.73          30.56          69.24           36.1         -8.514          -8.33          151.5          57.63          125.8          128.9           96.7
    0.1175              -47.73          30.56          69.23           36.1         -8.512         -8.326          151.4          57.62          125.7          128.8          96.71
    0.1273              -47.73          30.56          69.23          36.11          -8.51         -8.322          151.4           57.6          125.6          128.8          96.71
    0.1371              -47.72          30.56          69.23          36.12         -8.508         -8.318          151.3          57.58          125.6          128.8          96.71
    0.1469              -47.71          30.56          69.22          36.12         -8.505         -8.313          151.3          57.56          125.5          128.7          96.71
    0.1567              -47.71          30.56          69.22          36.13         -8.502         -8.307          151.2          57.54          125.4          128.7          96.72
    0.1665               -47.7          30.56          69.21          36.14         -8.499         -8.302          151.1          57.52          125.3          128.6          96.72
    0.1763              -47.69          30.56          69.21          36.15         -8.496         -8.295          151.1           57.5          125.2          128.6          96.72
    0.1861              -47.69          30.56           69.2          36.16         -8.493         -8.288          151.0          57.47          125.1          128.5          96.73
    0.1959              -47.68          30.56          69.19          36.17         -8.489         -8.281          150.9          57.44          125.0          128.4          96.73
    0.2057              -47.67          30.56          69.19          36.18         -8.484         -8.272          150.8          57.41          124.8          128.4          96.74
    0.2155              -47.66          30.56          69.18          36.19          -8.48         -8.263          150.7          57.38          124.7          128.3          96.74
    0.2253              -47.64          30.57          69.17           36.2         -8.474         -8.253          150.6          57.34          124.5          128.2          96.75
    0.2351              -47.63          30.57          69.16          36.22         -8.469         -8.241          150.4          57.29          124.4          128.1          96.75
    0.2449              -47.62          30.57          69.15          36.24         -8.462         -8.229          150.3          57.25          124.1          128.0          96.76
    0.2547               -47.6          30.57          69.13          36.25         -8.455         -8.214          150.1          57.19          123.9          127.9          96.77
    0.2645              -47.58          30.57          69.12          36.28         -8.447         -8.198          150.0          57.13          123.7          127.7          96.77
    0.2743              -47.56          30.57           69.1           36.3         -8.437          -8.18          149.7          57.06          123.4          127.6          96.78
    0.2841              -47.54          30.58          69.09          36.33         -8.427          -8.16          149.5          56.98          123.0          127.4          96.79
    0.2938              -47.51          30.58          69.07          36.36         -8.415         -8.136          149.2           56.9          122.7          127.2          96.81
    0.3036              -47.48          30.58          69.04           36.4         -8.401         -8.109          148.9          56.79          122.2          127.0          96.82
    0.3134              -47.44          30.58          69.01          36.44         -8.385         -8.078          148.6          56.68          121.7          126.7          96.84
    0.3232               -47.4          30.59          68.98          36.49         -8.367         -8.042          148.1          56.54          121.2          126.4          96.86
     0.333              -47.35          30.59          68.95          36.54         -8.345           -8.0          147.6          56.38          120.5          126.1          96.88
    0.3428              -47.29           30.6           68.9          36.61          -8.32          -7.95          147.1          56.19          119.7          125.6           96.9
    0.3526              -47.22           30.6          68.85          36.69         -8.289         -7.891          146.4          55.97          118.7          125.1          96.93
    0.3624              -47.14          30.61          68.79          36.79         -8.253          -7.82          145.6           55.7          117.6          124.5          96.97
    0.3722              -47.04          30.62          68.71           36.9         -8.209         -7.734          144.6          55.37          116.2          123.8          97.02
     0.382              -46.92          30.63          68.62          37.04         -8.155         -7.629          143.3          54.97          114.6          122.9          97.07
    0.3918              -46.76          30.65           68.5          37.22         -8.089         -7.499          141.8          54.48          112.5          121.8          97.14
    0.4016              -46.58          30.66          68.36          37.44         -8.007         -7.338          140.0          53.87          109.9          120.5          97.22
    0.4114              -46.34          30.69          68.18          37.71         -7.903         -7.134          137.6           53.1          106.7          118.7          97.33
    0.4212              -46.04          30.71          67.95          38.06          -7.77         -6.875          134.6          52.12          102.5          116.6          97.47
     0.431              -45.65          30.75          67.66           38.5         -7.601         -6.544          130.8          50.86          97.23          113.7          97.64
    0.4408              -45.15          30.79          67.29          39.08         -7.384         -6.119          125.9          49.25          90.44          110.2          97.86
    0.4506              -44.52          30.85          66.81          39.81         -7.107         -5.577          119.6           47.2          81.76          105.6          98.14
    0.4604              -43.72          30.93          66.21          40.73         -6.758         -4.894          111.6          44.61          70.85          99.79           98.5
    0.4702              -42.75          31.01          65.48          41.85         -6.333         -4.062          102.0          41.46          57.56          92.75          98.94
      0.48              -41.62          31.12          64.63          43.14          -5.84         -3.098          90.83           37.8          42.16          84.59          99.44
    0.4897              -40.41          31.23          63.71          44.55         -5.306         -2.055          78.73          33.85          25.47          75.76          99.99
    0.4995              -39.19          31.34          62.79          45.96         -4.773         -1.011          66.64          29.89           8.79          66.93          100.5
    0.5093              -38.06          31.45          61.94          47.25          -4.28       -0.04666          55.46          26.24         -6.617          58.77          101.0
    0.5191              -37.09          31.53          61.21          48.37         -3.855          0.785          45.82          23.09         -19.91          51.73          101.5
    0.5289              -36.29          31.61          60.61          49.29         -3.506          1.468          37.91           20.5         -30.82          45.96          101.8
    0.5387              -35.66          31.67          60.13          50.02         -3.228           2.01          31.62          18.44         -39.49          41.37          102.1
    0.5485              -35.16          31.71          59.75           50.6         -3.011          2.435          26.69          16.83         -46.28          37.77          102.3
    0.5583              -34.78          31.75          59.46          51.04         -2.842          2.766          22.85          15.58         -51.57          34.97          102.5
    0.5681              -34.47          31.77          59.23          51.39          -2.71          3.025          19.86           14.6         -55.71          32.78          102.6
    0.5779              -34.24           31.8          59.05          51.66         -2.606          3.229           17.5          13.83         -58.96          31.06          102.7
